<svg width="426.758" height="100.873" viewBox="0 0 426.758 69.873" xmlns="http://www.w3.org/2000/svg"><g id="svgGroup" stroke-linecap="round" fill-rule="evenodd" font-size="9pt" stroke="#fff" stroke-width="1mm" fill="#fff" style="stroke:#fff;stroke-width:1mm;fill:#fff"><path d="M 16.699 68.994 L 0 68.994 L 0 5.176 L 18.262 5.176 Q 39.6 5.176 39.6 20.703 A 18.172 18.172 0 0 1 39.076 25.163 A 14.225 14.225 0 0 1 37.134 29.59 A 12.106 12.106 0 0 1 33.574 33.037 Q 31.667 34.275 29.102 35.107 A 18.383 18.383 0 0 1 34.009 36.768 Q 36.328 37.939 38.086 39.795 A 13.709 13.709 0 0 1 40.67 43.719 A 15.749 15.749 0 0 1 40.869 44.189 A 14.009 14.009 0 0 1 41.771 47.772 A 17.77 17.77 0 0 1 41.895 49.902 Q 41.895 54.492 40.112 58.032 A 16.738 16.738 0 0 1 35.034 64.014 A 21.505 21.505 0 0 1 30.51 66.554 A 27.847 27.847 0 0 1 27.075 67.725 Q 22.412 68.994 16.699 68.994 Z M 17.578 39.697 L 8.691 39.697 L 8.691 61.67 L 17.871 61.67 A 32.223 32.223 0 0 0 21.772 61.45 Q 26.372 60.887 29.004 58.887 Q 32.666 56.104 32.666 50.195 A 9.991 9.991 0 0 0 32.314 47.502 A 8.639 8.639 0 0 0 31.641 45.801 A 9.013 9.013 0 0 0 29.02 42.762 A 10.662 10.662 0 0 0 28.662 42.505 A 13.112 13.112 0 0 0 26.27 41.219 A 17.891 17.891 0 0 0 23.901 40.43 A 21.915 21.915 0 0 0 20.718 39.858 A 29.313 29.313 0 0 0 17.578 39.697 Z M 17.676 12.5 L 8.691 12.5 L 8.691 32.471 L 17.383 32.471 A 24.305 24.305 0 0 0 20.221 32.312 A 18.635 18.635 0 0 0 22.778 31.836 A 12.896 12.896 0 0 0 25.217 30.937 A 10.483 10.483 0 0 0 26.929 29.883 A 8.97 8.97 0 0 0 29.614 26.587 A 9.236 9.236 0 0 0 30.357 24.272 Q 30.553 23.226 30.566 22.035 A 15.516 15.516 0 0 0 30.566 21.875 A 11.605 11.605 0 0 0 30.15 18.739 A 10.748 10.748 0 0 0 29.98 18.188 A 6.657 6.657 0 0 0 27.93 15.21 A 8.37 8.37 0 0 0 26.392 14.187 Q 25.633 13.789 24.716 13.47 A 16.009 16.009 0 0 0 23.975 13.232 A 15.757 15.757 0 0 0 21.922 12.786 Q 20.056 12.5 17.676 12.5 Z" id="0" vector-effect="non-scaling-stroke"/><path d="M 94.189 68.994 L 86.572 68.994 L 86.377 62.402 A 32.492 32.492 0 0 1 82.85 65.442 Q 80.782 66.969 78.682 67.924 A 19.703 19.703 0 0 1 78.247 68.115 A 21.887 21.887 0 0 1 69.58 69.873 Q 66.014 69.873 63.328 69.098 A 14.904 14.904 0 0 1 62.402 68.799 A 15.347 15.347 0 0 1 59.686 67.523 A 11.96 11.96 0 0 1 57.495 65.845 A 11.452 11.452 0 0 1 54.663 61.426 Q 53.76 58.887 53.76 55.908 A 15.851 15.851 0 0 1 54.598 50.636 A 13.303 13.303 0 0 1 59.253 44.36 Q 63.207 41.355 69.881 40.513 A 44.908 44.908 0 0 1 75.488 40.186 L 85.645 40.186 L 85.645 35.889 A 10.98 10.98 0 0 0 85.22 32.758 A 8.452 8.452 0 0 0 82.861 28.931 A 8.617 8.617 0 0 0 79.77 27.111 Q 78.438 26.643 76.797 26.452 A 20.986 20.986 0 0 0 74.365 26.318 Q 70.215 26.318 66.187 27.246 A 54.538 54.538 0 0 0 60.521 28.891 A 64.635 64.635 0 0 0 57.861 29.883 L 57.861 22.217 Q 59.473 21.631 61.45 21.069 Q 63.428 20.508 65.625 20.068 Q 67.822 19.629 70.215 19.36 A 43.304 43.304 0 0 1 75.049 19.092 A 34.914 34.914 0 0 1 79.272 19.336 A 26.416 26.416 0 0 1 83.057 20.068 A 18.296 18.296 0 0 1 86.44 21.348 A 14.512 14.512 0 0 1 89.087 23.047 Q 91.553 25.049 92.871 28.076 Q 94.151 31.015 94.188 34.966 A 25.228 25.228 0 0 1 94.189 35.205 L 94.189 68.994 Z M 85.645 55.371 L 85.645 46.68 L 74.854 46.68 A 26.744 26.744 0 0 0 72.42 46.784 Q 70.747 46.938 69.385 47.314 A 12.879 12.879 0 0 0 67.566 47.959 Q 66.6 48.391 65.84 48.955 A 7.643 7.643 0 0 0 65.625 49.121 A 7.299 7.299 0 0 0 63.616 51.576 A 7.156 7.156 0 0 0 63.452 51.929 A 8.571 8.571 0 0 0 62.82 54.314 A 10.798 10.798 0 0 0 62.744 55.615 A 8.369 8.369 0 0 0 63.184 58.325 A 6.027 6.027 0 0 0 64.6 60.62 Q 65.576 61.621 67.139 62.207 Q 68.454 62.7 70.254 62.778 A 16.016 16.016 0 0 0 70.947 62.793 Q 73.877 62.793 77.661 61.011 Q 80.771 59.546 84.161 56.68 A 48.084 48.084 0 0 0 85.645 55.371 Z" id="1" vector-effect="non-scaling-stroke"/><path d="M 111.133 68.018 L 111.133 60.205 A 68.059 68.059 0 0 0 119.678 62.061 Q 123.926 62.695 128.125 62.695 A 35.792 35.792 0 0 0 131.307 62.564 Q 135.052 62.228 137.158 61.035 A 6.609 6.609 0 0 0 138.765 59.793 A 4.952 4.952 0 0 0 140.088 56.299 A 6.449 6.449 0 0 0 139.957 54.974 A 5.225 5.225 0 0 0 139.624 53.931 Q 139.16 52.881 137.939 51.929 A 8.615 8.615 0 0 0 137.045 51.326 Q 136.076 50.75 134.638 50.149 A 33.08 33.08 0 0 0 134.155 49.951 Q 131.709 48.973 127.55 47.727 A 164.635 164.635 0 0 0 127.148 47.607 A 53.2 53.2 0 0 1 123.198 46.282 A 44.469 44.469 0 0 1 121.021 45.386 Q 118.213 44.141 116.162 42.432 A 12.685 12.685 0 0 1 112.939 38.428 A 10.458 10.458 0 0 1 111.965 35.432 A 14.246 14.246 0 0 1 111.768 33.008 A 10.364 10.364 0 0 1 112.005 30.86 Q 112.214 29.878 112.604 28.82 A 17.967 17.967 0 0 1 112.72 28.516 A 11.076 11.076 0 0 1 114.431 25.602 A 14.636 14.636 0 0 1 115.967 23.975 A 14.317 14.317 0 0 1 118.425 22.189 Q 120.062 21.234 122.168 20.483 Q 125.204 19.402 129.421 19.161 A 44.093 44.093 0 0 1 131.934 19.092 A 61.455 61.455 0 0 1 134.973 19.171 A 83.331 83.331 0 0 1 138.33 19.409 A 63.683 63.683 0 0 1 143.754 20.144 A 73.661 73.661 0 0 1 145.654 20.508 L 145.654 28.076 A 75.336 75.336 0 0 0 140.812 27.056 A 61.95 61.95 0 0 0 138.062 26.636 A 66.008 66.008 0 0 0 135.504 26.353 Q 133.484 26.172 131.836 26.172 A 34.389 34.389 0 0 0 129.596 26.241 Q 128.507 26.312 127.569 26.457 A 16.34 16.34 0 0 0 126.489 26.66 A 15.256 15.256 0 0 0 124.976 27.078 Q 124.249 27.322 123.649 27.623 A 7.524 7.524 0 0 0 122.974 28.003 A 6.454 6.454 0 0 0 121.975 28.776 A 4.585 4.585 0 0 0 121.045 30.005 A 5.345 5.345 0 0 0 120.459 32.471 A 5.872 5.872 0 0 0 120.64 33.95 A 5.071 5.071 0 0 0 120.972 34.863 A 4.168 4.168 0 0 0 121.561 35.757 Q 122.071 36.36 122.876 36.938 A 11.894 11.894 0 0 0 123.963 37.627 Q 125.124 38.284 126.758 38.94 Q 129.248 39.941 133.252 41.113 A 69.574 69.574 0 0 1 136.319 42.083 Q 138.715 42.905 140.576 43.774 Q 143.555 45.166 145.41 46.875 A 10.625 10.625 0 0 1 147.282 49.121 A 9.309 9.309 0 0 1 148.071 50.732 A 12.429 12.429 0 0 1 148.743 53.481 A 16.337 16.337 0 0 1 148.877 55.615 A 13.064 13.064 0 0 1 148.631 58.204 A 10.428 10.428 0 0 1 147.998 60.254 A 12.169 12.169 0 0 1 145.605 63.892 A 14.885 14.885 0 0 1 142.09 66.602 Q 140.088 67.725 137.817 68.457 Q 135.547 69.189 133.154 69.531 A 33.125 33.125 0 0 1 128.467 69.873 A 99.791 99.791 0 0 1 123.688 69.763 A 77.216 77.216 0 0 1 119.312 69.434 Q 115.137 68.994 111.133 68.018 Z" id="2" vector-effect="non-scaling-stroke"/><path d="M 206.25 47.217 L 171.826 47.217 A 21.58 21.58 0 0 0 172.278 51.776 Q 173.204 56.058 176.025 58.765 A 13.53 13.53 0 0 0 181.534 61.908 Q 183.613 62.544 186.114 62.723 A 28.325 28.325 0 0 0 188.135 62.793 A 54.167 54.167 0 0 0 192.432 62.622 Q 194.58 62.451 196.582 62.158 A 77.041 77.041 0 0 0 199.489 61.678 A 68.267 68.267 0 0 0 200.415 61.499 A 49.483 49.483 0 0 0 202.547 61.026 A 40.064 40.064 0 0 0 203.809 60.693 L 203.809 67.676 A 50.873 50.873 0 0 1 200.116 68.561 A 69 69 0 0 1 195.972 69.263 A 65.062 65.062 0 0 1 187.499 69.871 A 71.54 71.54 0 0 1 186.914 69.873 A 38.927 38.927 0 0 1 181.912 69.569 Q 179.327 69.233 177.122 68.528 A 22.028 22.028 0 0 1 176.074 68.164 A 20.093 20.093 0 0 1 171.483 65.755 A 17.15 17.15 0 0 1 168.628 63.208 A 19.413 19.413 0 0 1 165.177 57.649 A 23.98 23.98 0 0 1 164.331 55.249 A 33.042 33.042 0 0 1 163.225 49.723 A 44.311 44.311 0 0 1 162.939 44.58 A 32.151 32.151 0 0 1 164 36.246 A 29.72 29.72 0 0 1 164.429 34.79 A 25.204 25.204 0 0 1 167.511 28.383 A 23.092 23.092 0 0 1 168.774 26.685 Q 171.631 23.193 175.781 21.143 A 19.804 19.804 0 0 1 182.25 19.263 A 24.834 24.834 0 0 1 185.205 19.092 A 27.802 27.802 0 0 1 189.897 19.47 A 20.987 20.987 0 0 1 194.287 20.703 A 18.61 18.61 0 0 1 199.701 24.035 A 17.473 17.473 0 0 1 200.952 25.269 A 18.774 18.774 0 0 1 204.382 30.659 A 22.669 22.669 0 0 1 205.054 32.446 A 27.376 27.376 0 0 1 206.233 37.966 A 35.159 35.159 0 0 1 206.445 41.895 Q 206.445 43.68 206.398 44.893 A 42.207 42.207 0 0 1 206.396 44.922 A 48.795 48.795 0 0 1 206.316 46.391 A 40.443 40.443 0 0 1 206.25 47.217 Z M 171.826 40.674 L 197.607 40.674 A 22.783 22.783 0 0 0 197.631 39.655 Q 197.631 37.98 197.374 36.46 A 16.018 16.018 0 0 0 196.973 34.692 A 13.396 13.396 0 0 0 195.673 31.618 A 11.6 11.6 0 0 0 194.556 30.029 Q 192.92 28.076 190.479 26.978 A 12.209 12.209 0 0 0 187.327 26.064 A 16.372 16.372 0 0 0 184.814 25.879 A 12.526 12.526 0 0 0 181.526 26.299 A 10.997 10.997 0 0 0 179.736 26.953 A 11.581 11.581 0 0 0 175.781 29.98 A 14.689 14.689 0 0 0 173.808 33.016 A 18.128 18.128 0 0 0 173.096 34.668 Q 172.07 37.402 171.826 40.674 Z" id="3" vector-effect="non-scaling-stroke"/><path d="M 250.586 20.605 L 250.586 0 L 259.131 0 L 259.131 68.994 L 251.514 68.994 L 251.221 59.717 A 32.879 32.879 0 0 1 248.228 63.479 Q 246.464 65.374 244.574 66.691 A 18.673 18.673 0 0 1 243.506 67.383 Q 239.355 69.873 234.521 69.873 A 17.044 17.044 0 0 1 230.573 69.434 A 13.696 13.696 0 0 1 227.124 68.115 A 15.025 15.025 0 0 1 221.802 63.159 A 21.078 21.078 0 0 1 219.744 59.152 A 28.044 28.044 0 0 1 218.604 55.469 Q 217.529 50.977 217.529 45.508 A 39.022 39.022 0 0 1 217.93 39.78 A 29.033 29.033 0 0 1 219.238 34.399 A 24.635 24.635 0 0 1 221.755 29.195 A 20.852 20.852 0 0 1 224.097 26.196 A 20.56 20.56 0 0 1 231.665 21.118 A 25.084 25.084 0 0 1 238.174 19.558 A 31.152 31.152 0 0 1 241.504 19.385 Q 243.848 19.385 246.118 19.678 Q 248.389 19.971 250.586 20.605 Z M 250.586 51.172 L 250.586 28.418 A 19.596 19.596 0 0 0 247.491 27.294 A 23.329 23.329 0 0 0 245.947 26.929 A 25.359 25.359 0 0 0 240.918 26.416 A 17.177 17.177 0 0 0 236.329 26.996 A 12.415 12.415 0 0 0 230.103 30.908 A 13.626 13.626 0 0 0 227.662 35.193 Q 226.266 39.015 226.222 44.608 A 46.482 46.482 0 0 0 226.221 44.971 Q 226.221 53.857 228.833 58.228 A 9.93 9.93 0 0 0 230.886 60.716 Q 233.056 62.568 236.133 62.597 A 10.404 10.404 0 0 0 236.23 62.598 A 8.332 8.332 0 0 0 239.279 61.986 Q 241.107 61.27 243.042 59.717 Q 246.631 56.836 250.586 51.172 Z" id="4" vector-effect="non-scaling-stroke"/>

</g>
<g id="svgGroup" stroke-linecap="round" fill-rule="evenodd" font-size="9pt" stroke="#fff" stroke-width="1mm" fill="#fff" style="stroke:#fff;stroke-width:.001mm;fill:#fff">
<path d="M 291.504 46.094 L 283.594 46.094 L 283.594 68.994 L 274.902 68.994 L 274.902 5.176 L 292.871 5.176 A 38.748 38.748 0 0 1 301.408 6.098 A 36.047 36.047 0 0 1 301.953 6.226 A 23.199 23.199 0 0 1 307.09 8.102 A 20.138 20.138 0 0 1 309.595 9.619 A 17.045 17.045 0 0 1 314.844 15.674 Q 316.682 19.167 316.79 24.088 A 28.245 28.245 0 0 1 316.797 24.707 A 21.529 21.529 0 0 1 315.332 32.446 Q 313.867 36.279 310.791 39.307 A 20.721 20.721 0 0 1 306.536 42.497 A 27.313 27.313 0 0 1 302.93 44.214 Q 298.145 46.094 291.504 46.094 Z M 292.48 12.402 L 283.594 12.402 L 283.594 38.672 L 291.699 38.672 A 28.501 28.501 0 0 0 296.175 38.343 Q 300.719 37.619 303.589 35.303 Q 307.626 32.045 307.759 25.545 A 21.833 21.833 0 0 0 307.764 25.098 A 14.985 14.985 0 0 0 307.288 21.208 A 10.417 10.417 0 0 0 303.735 15.674 Q 300.364 12.936 294.753 12.489 A 28.657 28.657 0 0 0 292.48 12.402 Z" id="5" vector-effect="non-scaling-stroke"/>

<path d="M 371.777 5.176 L 371.777 68.994 L 363.086 68.994 L 363.086 39.697 L 336.279 39.697 L 336.279 68.994 L 327.588 68.994 L 327.588 5.176 L 336.279 5.176 L 336.279 32.178 L 363.086 32.178 L 363.086 5.176 L 371.777 5.176 Z" id="6" vector-effect="non-scaling-stroke"/>

<path d="M 401.465 46.094 L 393.555 46.094 L 393.555 68.994 L 384.863 68.994 L 384.863 5.176 L 402.832 5.176 A 38.748 38.748 0 0 1 411.369 6.098 A 36.047 36.047 0 0 1 411.914 6.226 A 23.199 23.199 0 0 1 417.051 8.102 A 20.138 20.138 0 0 1 419.556 9.619 A 17.045 17.045 0 0 1 424.805 15.674 Q 426.643 19.167 426.751 24.088 A 28.245 28.245 0 0 1 426.758 24.707 A 21.529 21.529 0 0 1 425.293 32.446 Q 423.828 36.279 420.752 39.307 A 20.721 20.721 0 0 1 416.497 42.497 A 27.313 27.313 0 0 1 412.891 44.214 Q 408.105 46.094 401.465 46.094 Z M 402.441 12.402 L 393.555 12.402 L 393.555 38.672 L 401.66 38.672 A 28.501 28.501 0 0 0 406.136 38.343 Q 410.68 37.619 413.55 35.303 Q 417.587 32.045 417.72 25.545 A 21.833 21.833 0 0 0 417.725 25.098 A 14.985 14.985 0 0 0 417.249 21.208 A 10.417 10.417 0 0 0 413.696 15.674 Q 410.325 12.936 404.714 12.489 A 28.657 28.657 0 0 0 402.441 12.402 Z" id="7" vector-effect="non-scaling-stroke"/>


</g></svg>